<svg width="169" height="65" viewBox="0 0 169 65" fill="none" xmlns="http://www.w3.org/2000/svg">
<path d="M22.6 57.5C23 57.7 23.3 58 23.5 58.3C23.7 58.7 23.8 59.1 23.8 59.6C23.8 60.1 23.7 60.5 23.4 60.9C23.1 61.3 22.8 61.5 22.3 61.7L23.9 64.7H22.5L21.1 62H19.4V64.7H18.2V57.2H21.2C21.7 57.2 22.2 57.3 22.6 57.5ZM21.1 60.9C21.5 60.9 21.9 60.8 22.2 60.5C22.5 60.3 22.6 59.9 22.6 59.5C22.6 59.1 22.5 58.8 22.2 58.5C21.9 58.3 21.6 58.1 21.1 58.1H19.5V60.7H21.1V60.9Z" fill="#201E1F"/>
<path d="M32 57.2V58.3H28.3V60.4H31.3V61.5H28.3V63.7H32.1V64.8H27V57.3H32V57.2Z" fill="#201E1F"/>
<path d="M36.9 57.2L39.3 63.1L41.7 57.2H43.3V64.7H42.1V59.2L39.8 64.7H38.8L36.5 59.2V64.7H35.3V57.2H36.9Z" fill="#201E1F"/>
<path d="M52.1 64.3C51.5 64.6 50.9 64.8 50.2 64.8C49.5 64.8 48.9 64.6 48.3 64.3C47.7 64 47.3 63.5 47 62.9C46.7 62.3 46.5 61.7 46.5 60.9C46.5 60.1 46.7 59.5 47 58.9C47.3 58.3 47.7 57.9 48.3 57.5C48.9 57.2 49.5 57 50.2 57C50.9 57 51.5 57.2 52.1 57.5C52.7 57.8 53.1 58.3 53.4 58.9C53.7 59.5 53.9 60.1 53.9 60.9C53.9 61.7 53.7 62.3 53.4 62.9C53.1 63.5 52.6 64 52.1 64.3ZM48.9 63.3C49.3 63.5 49.7 63.7 50.1 63.7C50.6 63.7 51 63.6 51.3 63.3C51.7 63.1 51.9 62.7 52.1 62.3C52.3 61.9 52.4 61.4 52.4 60.9C52.4 60.4 52.3 59.9 52.1 59.5C51.9 59.1 51.6 58.8 51.3 58.5C50.9 58.3 50.5 58.2 50.1 58.2C49.6 58.2 49.2 58.3 48.9 58.5C48.5 58.7 48.3 59.1 48.1 59.5C47.9 59.9 47.8 60.4 47.8 60.9C47.8 61.4 47.9 61.9 48.1 62.3C48.3 62.8 48.6 63.1 48.9 63.3Z" fill="#201E1F"/>
<path d="M59.5 57.2C60.3 57.2 60.9 57.4 61.5 57.7C62.1 58 62.5 58.5 62.8 59C63.1 59.5 63.3 60.2 63.3 61C63.3 61.7 63.1 62.4 62.8 63C62.5 63.6 62 64 61.5 64.3C60.9 64.6 60.3 64.8 59.5 64.8H57.1V57.3H59.5V57.2ZM61.3 62.9C61.7 62.4 62 61.8 62 60.9C62 60 61.8 59.4 61.3 58.9C60.9 58.4 60.2 58.2 59.4 58.2H58.2V63.6H59.4C60.3 63.6 60.9 63.4 61.3 62.9Z" fill="#201E1F"/>
<path d="M71.4 57.2V58.3H67.7V60.4H70.7V61.5H67.7V63.7H71.5V64.8H66.4V57.3H71.4V57.2Z" fill="#201E1F"/>
<path d="M74.7 57.2H75.9V63.6H79.1V64.7H74.6V57.2H74.7Z" fill="#201E1F"/>
<path d="M84.6 57.2H86.1L88.9 64.7H87.6L86.9 62.8H83.8L83.1 64.7H81.8L84.6 57.2ZM86.5 61.8L85.3 58.5L84.1 61.8H86.5Z" fill="#201E1F"/>
<path d="M98.3 57.2L100.7 63.1L103.1 57.2H104.7V64.7H103.5V59.2L101.2 64.7H100.2L97.9 59.2V64.7H96.7V57.2H98.3Z" fill="#201E1F"/>
<path d="M109.5 57.2V64.7H108.3V57.2H109.5Z" fill="#201E1F"/>
<path d="M120.3 57.2C121.1 57.2 121.7 57.4 122.3 57.7C122.9 58 123.3 58.5 123.6 59C123.9 59.6 124.1 60.2 124.1 61C124.1 61.7 123.9 62.4 123.6 63C123.3 63.6 122.8 64 122.3 64.3C121.7 64.6 121.1 64.8 120.3 64.8H117.9V57.3H120.3V57.2ZM122.2 62.9C122.6 62.4 122.9 61.8 122.9 60.9C122.9 60 122.7 59.4 122.2 58.9C121.8 58.4 121.1 58.2 120.3 58.2H119.1V63.6H120.3C121.1 63.6 121.7 63.4 122.2 62.9Z" fill="#201E1F"/>
<path d="M132.3 57.2V58.3H128.6V60.4H131.6V61.5H128.6V63.7H132.4V64.8H127.3V57.3H132.3V57.2Z" fill="#201E1F"/>
<path d="M139.9 57.5C140.3 57.7 140.6 58 140.8 58.3C141 58.7 141.1 59.1 141.1 59.6C141.1 60.1 141 60.5 140.8 60.9C140.6 61.3 140.3 61.5 139.9 61.7C139.5 61.9 139 62 138.5 62H136.8V64.7H135.6V57.2H138.6C139.1 57.2 139.5 57.3 139.9 57.5ZM138.4 60.9C138.8 60.9 139.2 60.8 139.5 60.5C139.8 60.3 139.9 59.9 139.9 59.5C139.9 59.1 139.8 58.8 139.5 58.5C139.2 58.3 138.9 58.1 138.4 58.1H136.8V60.7H138.4V60.9Z" fill="#201E1F"/>
<path d="M145.5 57.2H147L149.8 64.7H148.5L147.8 62.8H144.7L144 64.7H142.7L145.5 57.2ZM147.4 61.8L146.2 58.5L145 61.8H147.4Z" fill="#201E1F"/>
<path d="M34.9 47.4H49.1L39 32.6C44.8 29.8 48.2 24.7 48.2 17.8C48.2 7.1 40.1 0.399994 27.3 0.399994H5.79999V34.7H0V49.5H14.8V34.9H26.4L34.9 47.4ZM19.1 10.8H26.5C32 10.8 34.8 13.4 34.8 17.7C34.8 22 32 24.5 26.5 24.5H19.1V10.8Z" fill="#201E1F"/>
<path d="M99.1 0.399994L83 27.5L66.4 0.399994H55.5V34.7H67.8V23.1L79.8 42.7H85.7L97.8 22.5L97.9 47.4H110.2L110 0.399994H99.1Z" fill="#201E1F"/>
<path d="M141.8 0.399994H132.9V11H141.3C149.3 11 154.7 15.8 154.7 23.9C154.7 32 149.3 36.8 141.3 36.8H132.9V14.9H119.6V47.4H141.8C157.4 47.4 168.1 38.3 168.1 23.9C168 9.39999 157.4 0.399994 141.8 0.399994Z" fill="#201E1F"/>
</svg>
